Rokkitt-Bold.ufo
<glyph name="slash" format="1">
  <advance width="702"/>
  <unicode hex="002F"/>
  <outline>
    <contour>
      <point x="143" y="-71" type="line"/>
      <point x="730" y="1209" type="line"/>
      <point x="596" y="1253" type="line"/>
      <point x="7" y="-28" type="line"/>
    </contour>
  </outline>
</glyph>
<glyph name="two" format="1">
  <advance width="1058"/>
  <unicode hex="0032"/>
  <outline>
    <contour>
      <point x="140" y="0" type="line"/>
      <point x="945" y="0" type="line"/>
      <point x="942" y="372" type="line"/>
      <point x="768" y="372" type="line"/>
      <point x="767" y="162" type="line"/>
      <point x="402" y="162" type="line"/>
      <point x="645" y="402" type="line" smooth="yes"/>
      <point x="776" y="531"/>
      <point x="934" y="666"/>
      <point x="934" y="830" type="curve"/>
      <point x="934" y="1050"/>
      <point x="771" y="1174"/>
      <point x="527" y="1174" type="curve"/>
      <point x="272" y="1174"/>
      <point x="127" y="1029"/>
      <point x="127" y="828" type="curve"/>
      <point x="127" y="777"/>
      <point x="137" y="725"/>
      <point x="155" y="673" type="curve"/>
      <point x="346" y="673" type="line"/>
      <point x="334" y="719"/>
      <point x="328" y="761"/>
      <point x="328" y="799" type="curve"/>
      <point x="328" y="932"/>
      <point x="405" y="999"/>
      <point x="529" y="999" type="curve"/>
      <point x="664" y="999"/>
      <point x="709" y="920"/>
      <point x="713" y="828" type="curve"/>
      <point x="717" y="740"/>
      <point x="606" y="638"/>
      <point x="504" y="534" type="curve" smooth="yes"/>
      <point x="140" y="167" type="line"/>
    </contour>
  </outline>
</glyph>
<glyph name="three" format="1">
  <advance width="1088"/>
  <unicode hex="0033"/>
  <outline>
    <contour>
      <point x="531" y="-22" type="curve" smooth="yes"/>
      <point x="814" y="-22"/>
      <point x="980" y="125"/>
      <point x="980" y="344" type="curve" smooth="yes"/>
      <point x="980" y="483"/>
      <point x="887" y="574"/>
      <point x="731" y="612" type="curve"/>
      <point x="856" y="648"/>
      <point x="931" y="740"/>
      <point x="931" y="865" type="curve" smooth="yes"/>
      <point x="931" y="1037"/>
      <point x="782" y="1174"/>
      <point x="520" y="1174" type="curve" smooth="yes"/>
      <point x="332" y="1174"/>
      <point x="153" y="1083"/>
      <point x="90" y="925" type="curve"/>
      <point x="265" y="846" type="line"/>
      <point x="298" y="941"/>
      <point x="388" y="1005"/>
      <point x="513" y="1005" type="curve" smooth="yes"/>
      <point x="632" y="1005"/>
      <point x="714" y="940"/>
      <point x="714" y="857" type="curve" smooth="yes"/>
      <point x="714" y="746"/>
      <point x="648" y="679"/>
      <point x="428" y="679" type="curve"/>
      <point x="428" y="520" type="line"/>
      <point x="656" y="520"/>
      <point x="749" y="469"/>
      <point x="754" y="345" type="curve" smooth="yes"/>
      <point x="760" y="222"/>
      <point x="668" y="148"/>
      <point x="532" y="148" type="curve" smooth="yes"/>
      <point x="404" y="148"/>
      <point x="309" y="209"/>
      <point x="264" y="330" type="curve"/>
      <point x="93" y="240" type="line"/>
      <point x="142" y="80"/>
      <point x="313" y="-22"/>
    </contour>
  </outline>
</glyph>
<glyph name="four" format="1">
  <advance width="1008"/>
  <unicode hex="0034"/>
  <outline>
    <contour>
      <point x="366" y="0" type="line"/>
      <point x="875" y="0" type="line"/>
      <point x="875" y="152" type="line"/>
      <point x="734" y="152" type="line"/>
      <point x="734" y="342" type="line"/>
      <point x="908" y="342" type="line"/>
      <point x="908" y="488" type="line"/>
      <point x="734" y="488" type="line"/>
      <point x="734" y="1152" type="line"/>
      <point x="528" y="1152" type="line"/>
      <point x="35" y="505" type="line"/>
      <point x="56" y="342" type="line"/>
      <point x="529" y="342" type="line"/>
      <point x="529" y="152" type="line"/>
      <point x="366" y="152" type="line"/>
    </contour>
    <contour>
      <point x="224" y="488" type="line"/>
      <point x="529" y="914" type="line"/>
      <point x="529" y="488" type="line"/>
    </contour>
  </outline>
</glyph>
<glyph name="five" format="1">
  <advance width="1076"/>
  <unicode hex="0035"/>
  <outline>
    <contour>
      <point x="542" y="-22" type="curve"/>
      <point x="817" y="-22"/>
      <point x="985" y="124"/>
      <point x="985" y="363" type="curve"/>
      <point x="985" y="600"/>
      <point x="834" y="744"/>
      <point x="586" y="744" type="curve"/>
      <point x="503" y="744"/>
      <point x="413" y="709"/>
      <point x="352" y="652" type="curve"/>
      <point x="368" y="988" type="line"/>
      <point x="733" y="988" type="line"/>
      <point x="733" y="836" type="line"/>
      <point x="920" y="836" type="line"/>
      <point x="920" y="1152" type="line"/>
      <point x="179" y="1152" type="line"/>
      <point x="156" y="530" type="line"/>
      <point x="324" y="460" type="line"/>
      <point x="389" y="530"/>
      <point x="493" y="563"/>
      <point x="555" y="563" type="curve"/>
      <point x="682" y="563"/>
      <point x="758" y="487"/>
      <point x="758" y="362" type="curve"/>
      <point x="758" y="234"/>
      <point x="675" y="156"/>
      <point x="538" y="156" type="curve"/>
      <point x="409" y="156"/>
      <point x="305" y="216"/>
      <point x="232" y="305" type="curve"/>
      <point x="107" y="165" type="line"/>
      <point x="199" y="53"/>
      <point x="342" y="-22"/>
    </contour>
  </outline>
</glyph>
<glyph name="colon" format="1">
  <advance width="625"/>
  <unicode hex="003A"/>
  <outline>
    <contour>
      <point x="180" y="67" type="line"/>
      <point x="446" y="67" type="line"/>
      <point x="446" y="325" type="line"/>
      <point x="180" y="325" type="line"/>
    </contour>
    <contour>
      <point x="180" y="626" type="line"/>
      <point x="446" y="626" type="line"/>
      <point x="446" y="887" type="line"/>
      <point x="180" y="887" type="line"/>
    </contour>
  </outline>
</glyph>
<glyph name="semicolon" format="1">
  <advance width="566"/>
  <unicode hex="003B"/>
  <outline>
    <contour>
      <point x="157" y="-207" type="line"/>
      <point x="372" y="-205"/>
      <point x="430" y="-117"/>
      <point x="430" y="77" type="curve" smooth="yes"/>
      <point x="430" y="92"/>
      <point x="429" y="316"/>
      <point x="428" y="327" type="curve"/>
      <point x="159" y="326" type="line"/>
      <point x="159" y="67" type="line"/>
      <point x="298" y="67" type="line"/>
      <point x="298" y="-44"/>
      <point x="265" y="-94"/>
      <point x="157" y="-103" type="curve"/>
    </contour>
    <contour>
      <point x="156" y="626" type="line"/>
      <point x="422" y="626" type="line"/>
      <point x="422" y="887" type="line"/>
      <point x="156" y="887" type="line"/>
    </contour>
  </outline>
</glyph>
<glyph name="B" format="1">
  <advance width="1181"/>
  <unicode hex="0042"/>
  <outline>
    <contour>
      <point x="512" y="1152" type="move" name="top"/>
    </contour>
    <contour>
      <point x="342" y="0" type="line"/>
      <point x="638" y="0" type="line" smooth="yes"/>
      <point x="1012" y="0"/>
      <point x="1115" y="173"/>
      <point x="1115" y="335" type="curve" smooth="yes"/>
      <point x="1115" y="472"/>
      <point x="1030" y="578"/>
      <point x="875" y="619" type="curve"/>
      <point x="986" y="659"/>
      <point x="1058" y="743"/>
      <point x="1058" y="867" type="curve" smooth="yes"/>
      <point x="1058" y="1048"/>
      <point x="913" y="1152"/>
      <point x="632" y="1152" type="curve" smooth="yes"/>
      <point x="342" y="1152" type="line"/>
      <point x="342" y="1001" type="line"/>
      <point x="559" y="1001" type="line" smooth="yes"/>
      <point x="741" y="1001"/>
      <point x="811" y="964"/>
      <point x="811" y="851" type="curve" smooth="yes"/>
      <point x="811" y="741"/>
      <point x="743" y="684"/>
      <point x="578" y="684" type="curve" smooth="yes"/>
      <point x="348" y="684" type="line"/>
      <point x="348" y="532" type="line"/>
      <point x="603" y="532" type="line" smooth="yes"/>
      <point x="787" y="532"/>
      <point x="863" y="455"/>
      <point x="863" y="345" type="curve" smooth="yes"/>
      <point x="863" y="224"/>
      <point x="798" y="152"/>
      <point x="598" y="152" type="curve" smooth="yes"/>
      <point x="342" y="152" type="line"/>
    </contour>
    <component base="uc_main_stem" xOffset="-84"/>
  </outline>
</glyph>
<glyph name="E" format="1">
  <advance width="1195"/>
  <unicode hex="0045"/>
  <outline>
    <contour>
      <point x="627" y="1152" type="move" name="top"/>
    </contour>
    <contour>
      <point x="711" y="0" type="move" name="ogonek"/>
    </contour>
    <contour>
      <point x="624" y="0" type="move" name="bot"/>
    </contour>
    <contour>
      <point x="760" y="411" type="line"/>
      <point x="862" y="411" type="line"/>
      <point x="862" y="797" type="line"/>
      <point x="759" y="797" type="line"/>
      <point x="759" y="681" type="line"/>
      <point x="353" y="681" type="line"/>
      <point x="353" y="523" type="line"/>
      <point x="760" y="523" type="line"/>
    </contour>
    <contour>
      <point x="341" y="0" type="line"/>
      <point x="1118" y="0" type="line"/>
      <point x="1118" y="367" type="line"/>
      <point x="936" y="367" type="line"/>
      <point x="936" y="152" type="line"/>
      <point x="341" y="152" type="line"/>
    </contour>
    <contour>
      <point x="934" y="798" type="line"/>
      <point x="1115" y="798" type="line"/>
      <point x="1115" y="1152" type="line"/>
      <point x="341" y="1152" type="line"/>
      <point x="341" y="1000" type="line"/>
      <point x="934" y="1001" type="line"/>
    </contour>
    <component base="uc_main_stem" xOffset="-84"/>
  </outline>
</glyph>
<glyph name="H" format="1">
  <advance width="1433"/>
  <unicode hex="0048"/>
  <outline>
    <contour>
      <point x="725" y="1152" type="move" name="top"/>
    </contour>
    <contour>
      <point x="713" y="0" type="move" name="bot"/>
    </contour>
    <contour>
      <point x="348" y="515" type="line"/>
      <point x="1099" y="515" type="line"/>
      <point x="1100" y="675" type="line"/>
      <point x="348" y="675" type="line"/>
    </contour>
    <component base="uc_main_stem" xOffset="679"/>
    <component base="uc_main_stem" xOffset="-84"/>
  </outline>
</glyph>
<glyph name="K" format="1">
  <advance width="1343"/>
  <unicode hex="004B"/>
  <outline>
    <contour>
      <point x="675" y="1152" type="move" name="top"/>
    </contour>
    <contour>
      <point x="666" y="0" type="move" name="bot"/>
    </contour>
    <contour>
      <point x="731" y="0" type="line"/>
      <point x="1300" y="0" type="line"/>
      <point x="1300" y="152" type="line"/>
      <point x="1154" y="152" type="line"/>
      <point x="706" y="591" type="line"/>
      <point x="1150" y="1001" type="line"/>
      <point x="1297" y="1001" type="line"/>
      <point x="1297" y="1152" type="line"/>
      <point x="754" y="1152" type="line"/>
      <point x="754" y="1001" type="line"/>
      <point x="882" y="1001" type="line"/>
      <point x="421" y="576" type="line"/>
      <point x="851" y="152" type="line"/>
      <point x="731" y="152" type="line"/>
    </contour>
    <component base="uc_main_stem" xOffset="-84"/>
  </outline>
</glyph>
<glyph name="R" format="1">
  <advance width="1296"/>
  <unicode hex="0052"/>
  <outline>
    <contour>
      <point x="577" y="1152" type="move" name="top"/>
    </contour>
    <contour>
      <point x="658" y="0" type="move" name="bot"/>
    </contour>
    <contour>
      <point x="917" y="0" type="line"/>
      <point x="1260" y="0" type="line"/>
      <point x="1260" y="152" type="line"/>
      <point x="1090" y="152" type="line"/>
      <point x="859" y="544" type="line"/>
      <point x="1028" y="586"/>
      <point x="1123" y="676"/>
      <point x="1123" y="850" type="curve" smooth="yes"/>
      <point x="1123" y="1083"/>
      <point x="941" y="1152"/>
      <point x="691" y="1152" type="curve" smooth="yes"/>
      <point x="343" y="1152" type="line"/>
      <point x="343" y="1001" type="line"/>
      <point x="685" y="1001" type="line" smooth="yes"/>
      <point x="814" y="1001"/>
      <point x="879" y="939"/>
      <point x="879" y="845" type="curve" smooth="yes"/>
      <point x="879" y="754"/>
      <point x="832" y="671"/>
      <point x="670" y="671" type="curve" smooth="yes"/>
      <point x="521" y="671" type="line"/>
      <point x="521" y="518" type="line"/>
      <point x="628" y="518" type="line"/>
    </contour>
    <component base="uc_main_stem" xOffset="-84"/>
  </outline>
</glyph>
<glyph name="T" format="1">
  <advance width="1178"/>
  <unicode hex="0054"/>
  <outline>
    <contour>
      <point x="591" y="1152" type="move" name="top"/>
    </contour>
    <contour>
      <point x="601" y="0" type="move" name="bot"/>
    </contour>
    <contour>
      <point x="590" y="611" type="move" name="mid"/>
    </contour>
    <contour>
      <point x="45" y="726" type="line"/>
      <point x="219" y="726" type="line"/>
      <point x="219" y="1001" type="line"/>
      <point x="960" y="1001" type="line"/>
      <point x="960" y="726" type="line"/>
      <point x="1133" y="726" type="line"/>
      <point x="1133" y="1152" type="line"/>
      <point x="45" y="1152" type="line"/>
    </contour>
    <component base="uc_main_stem" xOffset="177"/>
  </outline>
</glyph>
<glyph name="V" format="1">
  <advance width="1394"/>
  <unicode hex="0056"/>
  <outline>
    <contour>
      <point x="603" y="0" type="line"/>
      <point x="802" y="0" type="line"/>
      <point x="1207" y="1001" type="line"/>
      <point x="1361" y="1001" type="line"/>
      <point x="1361" y="1152" type="line"/>
      <point x="862" y="1152" type="line"/>
      <point x="862" y="1001" type="line"/>
      <point x="1009" y="1001" type="line"/>
      <point x="725" y="261" type="line"/>
      <point x="438" y="1001" type="line"/>
      <point x="586" y="1001" type="line"/>
      <point x="586" y="1152" type="line"/>
      <point x="34" y="1152" type="line"/>
      <point x="34" y="1001" type="line"/>
      <point x="184" y="1001" type="line"/>
    </contour>
  </outline>
</glyph>
<glyph name="bracketleft" format="1">
  <advance width="730"/>
  <unicode hex="005B"/>
  <outline>
    <contour>
      <point x="199" y="-203" type="line"/>
      <point x="613" y="-203" type="line"/>
      <point x="613" y="-51" type="line"/>
      <point x="420" y="-51" type="line"/>
      <point x="420" y="1115" type="line"/>
      <point x="613" y="1115" type="line"/>
      <point x="613" y="1266" type="line"/>
      <point x="199" y="1266" type="line"/>
    </contour>
  </outline>
</glyph>
<glyph name="c" format="1">
  <advance width="965"/>
  <unicode hex="0063"/>
  <outline>
    <contour>
      <point x="518" y="804" type="move" name="top"/>
    </contour>
    <contour>
      <point x="519" y="0" type="move" name="bot"/>
    </contour>
    <contour>
      <point x="504" y="-19" type="curve" smooth="yes"/>
      <point x="679" y="-19"/>
      <point x="817" y="58"/>
      <point x="896" y="161" type="curve"/>
      <point x="806" y="284" type="line"/>
      <point x="739" y="208"/>
      <point x="658" y="141"/>
      <point x="510" y="146" type="curve" smooth="yes"/>
      <point x="371" y="151"/>
      <point x="275" y="261"/>
      <point x="275" y="414" type="curve" smooth="yes"/>
      <point x="275" y="557"/>
      <point x="372" y="657"/>
      <point x="506" y="662" type="curve" smooth="yes"/>
      <point x="628" y="667"/>
      <point x="714" y="606"/>
      <point x="742" y="485" type="curve"/>
      <point x="897" y="485" type="line"/>
      <point x="897" y="808" type="line"/>
      <point x="726" y="808" type="line"/>
      <point x="725" y="723" type="line"/>
      <point x="696" y="781"/>
      <point x="591" y="826"/>
      <point x="492" y="826" type="curve" smooth="yes"/>
      <point x="231" y="826"/>
      <point x="49" y="653"/>
      <point x="49" y="409" type="curve" smooth="yes"/>
      <point x="49" y="155"/>
      <point x="235" y="-19"/>
    </contour>
  </outline>
</glyph>
<glyph name="d" format="1">
  <advance width="1080"/>
  <unicode hex="0064"/>
  <outline>
    <contour>
      <point x="317" y="804" type="move" name="top"/>
    </contour>
    <contour>
      <point x="1043" y="804" type="move" name="caron.alt"/>
    </contour>
    <contour>
      <point x="798" y="924" type="move" name="mid"/>
    </contour>
    <component base="lc_ascender_stem_2" xOffset="409"/>
    <component base="lc_bowl_left" xOffset="-114"/>
  </outline>
</glyph>
<glyph name="g" format="1">
  <advance width="1080"/>
  <unicode hex="0067"/>
  <outline>
    <contour>
      <point x="521" y="804" type="move" name="top"/>
    </contour>
    <contour>
      <point x="483" y="-392" type="curve" smooth="yes"/>
      <point x="725" y="-392"/>
      <point x="926" y="-292"/>
      <point x="926" y="-3" type="curve" smooth="yes"/>
      <point x="926" y="653" type="line"/>
      <point x="1057" y="653" type="line"/>
      <point x="1057" y="804" type="line"/>
      <point x="720" y="804" type="line"/>
      <point x="705" y="653" type="line"/>
      <point x="706" y="-12" type="line" smooth="yes"/>
      <point x="707" y="-168"/>
      <point x="617" y="-223"/>
      <point x="477" y="-223" type="curve" smooth="yes"/>
      <point x="393" y="-223"/>
      <point x="302" y="-205"/>
      <point x="210" y="-176" type="curve"/>
      <point x="168" y="-339" type="line"/>
      <point x="268" y="-372"/>
      <point x="376" y="-392"/>
    </contour>
    <component base="lc_bowl_left" yScale="0.98" xOffset="-107" yOffset="15"/>
  </outline>
</glyph>
<glyph name="k" format="1">
  <advance width="1073"/>
  <unicode hex="006B"/>
  <outline>
    <contour>
      <point x="777" y="953" type="move" name="top"/>
    </contour>
    <contour>
      <point x="571" y="0" type="move" name="bot"/>
    </contour>
    <contour>
      <point x="779" y="0" type="line"/>
      <point x="1044" y="0" type="line"/>
      <point x="1044" y="152" type="line"/>
      <point x="894" y="152" type="line"/>
      <point x="637" y="424" type="line"/>
      <point x="921" y="653" type="line"/>
      <point x="1033" y="653" type="line"/>
      <point x="1033" y="804" type="line"/>
      <point x="568" y="804" type="line"/>
      <point x="568" y="653" type="line"/>
      <point x="711" y="653" type="line"/>
      <point x="396" y="413" type="line"/>
    </contour>
    <component base="lc_ascender_stem" xOffset="-91"/>
  </outline>
</glyph>
<glyph name="l" format="1">
  <advance width="586"/>
  <unicode hex="006C"/>
  <outline>
    <contour>
      <point x="307" y="1152" type="move" name="top"/>
    </contour>
    <contour>
      <point x="525" y="822" type="move" name="caron.alt"/>
    </contour>
    <contour>
      <point x="304" y="0" type="move" name="bot"/>
    </contour>
    <contour>
      <point x="568" y="653" type="move" name="mid"/>
    </contour>
    <component base="lc_ascender_stem" xOffset="-86"/>
  </outline>
</glyph>
<glyph name="o" format="1">
  <advance width="985"/>
  <unicode hex="006F"/>
  <outline>
    <contour>
      <point x="488" y="808" type="move" name="top"/>
    </contour>
    <contour>
      <point x="512" y="0" type="move" name="ogonek"/>
    </contour>
    <contour>
      <point x="492" y="143" type="curve" smooth="yes"/>
      <point x="362" y="142"/>
      <point x="271" y="250"/>
      <point x="271" y="405" type="curve" smooth="yes"/>
      <point x="271" y="555"/>
      <point x="362" y="661"/>
      <point x="491" y="661" type="curve" smooth="yes"/>
      <point x="622" y="661"/>
      <point x="713" y="556"/>
      <point x="713" y="406" type="curve" smooth="yes"/>
      <point x="713" y="251"/>
      <point x="622" y="142"/>
    </contour>
    <contour>
      <point x="491" y="-22" type="curve" smooth="yes"/>
      <point x="755" y="-22"/>
      <point x="940" y="154"/>
      <point x="940" y="406" type="curve" smooth="yes"/>
      <point x="940" y="653"/>
      <point x="756" y="826"/>
      <point x="493" y="826" type="curve" smooth="yes"/>
      <point x="230" y="826"/>
      <point x="46" y="653"/>
      <point x="46" y="406" type="curve" smooth="yes"/>
      <point x="46" y="154"/>
      <point x="229" y="-22"/>
    </contour>
  </outline>
</glyph>
<glyph name="q" format="1">
  <advance width="1110"/>
  <unicode hex="0071"/>
  <outline>
    <contour>
      <point x="555" y="-341" type="line"/>
      <point x="1085" y="-341" type="line"/>
      <point x="1085" y="-182" type="line"/>
      <point x="940" y="-182" type="line"/>
      <point x="940" y="653" type="line"/>
      <point x="1075" y="653" type="line"/>
      <point x="1075" y="804" type="line"/>
      <point x="723" y="804" type="line"/>
      <point x="722" y="702" type="line"/>
      <point x="722" y="-182" type="line"/>
      <point x="555" y="-182" type="line"/>
    </contour>
    <component base="lc_bowl_left" xOffset="-115"/>
  </outline>
</glyph>
<glyph name="braceleft" format="1">
  <advance width="715"/>
  <unicode hex="007B"/>
  <outline>
    <contour>
      <point x="558" y="-202" type="curve" smooth="yes"/>
      <point x="644" y="-202" type="line"/>
      <point x="644" y="-62" type="line"/>
      <point x="461" y="-62"/>
      <point x="457" y="-34"/>
      <point x="457" y="162" type="curve" smooth="yes"/>
      <point x="457" y="409"/>
      <point x="430" y="498"/>
      <point x="291" y="554" type="curve"/>
      <point x="444" y="615"/>
      <point x="459" y="706"/>
      <point x="459" y="1006" type="curve" smooth="yes"/>
      <point x="459" y="1143"/>
      <point x="490" y="1169"/>
      <point x="644" y="1169" type="curve"/>
      <point x="644" y="1309" type="line"/>
      <point x="557" y="1309" type="line" smooth="yes"/>
      <point x="266" y="1309"/>
      <point x="268" y="1138"/>
      <point x="268" y="900" type="curve" smooth="yes"/>
      <point x="268" y="727"/>
      <point x="237" y="627"/>
      <point x="97" y="627" type="curve"/>
      <point x="97" y="481" type="line"/>
      <point x="242" y="481"/>
      <point x="268" y="379"/>
      <point x="268" y="199" type="curve" smooth="yes"/>
      <point x="268" y="-39"/>
      <point x="268" y="-202"/>
    </contour>
  </outline>
</glyph>
<glyph name="braceright" format="1">
  <advance width="716"/>
  <unicode hex="007D"/>
  <outline>
    <contour>
      <point x="119" y="-202" type="line"/>
      <point x="206" y="-202" type="line" smooth="yes"/>
      <point x="496" y="-202"/>
      <point x="496" y="-39"/>
      <point x="496" y="199" type="curve" smooth="yes"/>
      <point x="496" y="379"/>
      <point x="522" y="481"/>
      <point x="667" y="481" type="curve"/>
      <point x="667" y="627" type="line"/>
      <point x="525" y="627"/>
      <point x="496" y="728"/>
      <point x="496" y="904" type="curve" smooth="yes"/>
      <point x="496" y="1141"/>
      <point x="496" y="1309"/>
      <point x="207" y="1309" type="curve" smooth="yes"/>
      <point x="119" y="1309" type="line"/>
      <point x="119" y="1169" type="line"/>
      <point x="274" y="1169"/>
      <point x="305" y="1143"/>
      <point x="305" y="1006" type="curve" smooth="yes"/>
      <point x="305" y="706"/>
      <point x="320" y="615"/>
      <point x="473" y="554" type="curve"/>
      <point x="332" y="497"/>
      <point x="307" y="407"/>
      <point x="307" y="156" type="curve" smooth="yes"/>
      <point x="307" y="-35"/>
      <point x="302" y="-62"/>
      <point x="119" y="-62" type="curve"/>
    </contour>
  </outline>
</glyph>
<glyph name="plusminus" format="1">
  <advance width="987"/>
  <unicode hex="00B1"/>
  <outline>
    <contour>
      <point x="414" y="287" type="line"/>
      <point x="572" y="287" type="line"/>
      <point x="572" y="633" type="line"/>
      <point x="922" y="633" type="line"/>
      <point x="922" y="786" type="line"/>
      <point x="572" y="786" type="line"/>
      <point x="572" y="1134" type="line"/>
      <point x="414" y="1134" type="line"/>
      <point x="414" y="786" type="line"/>
      <point x="66" y="786" type="line"/>
      <point x="66" y="633" type="line"/>
      <point x="414" y="633" type="line"/>
    </contour>
    <contour>
      <point x="66" y="0" type="line"/>
      <point x="922" y="0" type="line"/>
      <point x="922" y="152" type="line"/>
      <point x="66" y="152" type="line"/>
    </contour>
  </outline>
</glyph>
<glyph name="paragraph" format="1">
  <advance width="1161"/>
  <unicode hex="00B6"/>
  <outline>
    <contour>
      <point x="492" y="0" type="line"/>
      <point x="1105" y="0" type="line"/>
      <point x="1105" y="153" type="line"/>
      <point x="950" y="153" type="line"/>
      <point x="950" y="1003" type="line"/>
      <point x="1095" y="1003" type="line"/>
      <point x="1095" y="1152" type="line"/>
      <point x="524" y="1152" type="line" smooth="yes"/>
      <point x="213" y="1152"/>
      <point x="114" y="977"/>
      <point x="114" y="792" type="curve" smooth="yes"/>
      <point x="114" y="605"/>
      <point x="244" y="431"/>
      <point x="481" y="434" type="curve" smooth="yes"/>
      <point x="739" y="434" type="line"/>
      <point x="739" y="153" type="line"/>
      <point x="492" y="153" type="line"/>
    </contour>
    <contour>
      <point x="538" y="585" type="line"/>
      <point x="538" y="1003" type="line"/>
      <point x="739" y="1003" type="line"/>
      <point x="739" y="585" type="line"/>
    </contour>
  </outline>
</glyph>
<glyph name="cedilla" format="1">
  <advance width="479"/>
  <unicode hex="00B8"/>
  <outline>
    <contour>
      <point x="280" y="0" type="move" name="_bot"/>
    </contour>
    <contour>
      <point x="281" y="-393" type="curve" smooth="yes"/>
      <point x="374" y="-393"/>
      <point x="449" y="-355"/>
      <point x="449" y="-256" type="curve" smooth="yes"/>
      <point x="449" y="-192"/>
      <point x="400" y="-131"/>
      <point x="294" y="-117" type="curve"/>
      <point x="322" y="5" type="line"/>
      <point x="232" y="5" type="line"/>
      <point x="167" y="-168" type="line"/>
      <point x="244" y="-175"/>
      <point x="283" y="-198"/>
      <point x="283" y="-238" type="curve" smooth="yes"/>
      <point x="283" y="-280"/>
      <point x="252" y="-296"/>
      <point x="206" y="-296" type="curve" smooth="yes"/>
      <point x="168" y="-296"/>
      <point x="120" y="-285"/>
      <point x="74" y="-270" type="curve"/>
      <point x="74" y="-345" type="line"/>
      <point x="139" y="-375"/>
      <point x="215" y="-393"/>
    </contour>
  </outline>
</glyph>
<glyph name="onequarter" format="1">
  <advance width="2119"/>
  <unicode hex="00BC"/>
  <outline>
    <contour>
      <point x="1517" y="0" type="line"/>
      <point x="1879" y="0" type="line"/>
      <point x="1879" y="108" type="line"/>
      <point x="1779" y="108" type="line"/>
      <point x="1779" y="243" type="line"/>
      <point x="1903" y="243" type="line"/>
      <point x="1903" y="345" type="line"/>
      <point x="1779" y="345" type="line"/>
      <point x="1779" y="818" type="line"/>
      <point x="1634" y="818" type="line"/>
      <point x="1283" y="359" type="line"/>
      <point x="1298" y="243" type="line"/>
      <point x="1633" y="243" type="line"/>
      <point x="1633" y="108" type="line"/>
      <point x="1517" y="108" type="line"/>
    </contour>
    <contour>
      <point x="222" y="334" type="line"/>
      <point x="628" y="334" type="line"/>
      <point x="628" y="442" type="line"/>
      <point x="508" y="442" type="line"/>
      <point x="508" y="1152" type="line"/>
      <point x="214" y="1115" type="line"/>
      <point x="214" y="1008" type="line"/>
      <point x="349" y="1025" type="line"/>
      <point x="349" y="442" type="line"/>
      <point x="222" y="442" type="line"/>
    </contour>
    <contour>
      <point x="586" y="-56" type="line"/>
      <point x="722" y="-56" type="line"/>
      <point x="1539" y="1246" type="line"/>
      <point x="1406" y="1246" type="line"/>
    </contour>
    <contour>
      <point x="1405" y="345" type="line"/>
      <point x="1633" y="649" type="line"/>
      <point x="1633" y="345" type="line"/>
    </contour>
  </outline>
</glyph>
<glyph name="onehalf" format="1">
  <advance width="2158"/>
  <unicode hex="00BD"/>
  <outline>
    <contour>
      <point x="1392" y="0" type="line"/>
      <point x="1988" y="0" type="line"/>
      <point x="1985" y="260" type="line"/>
      <point x="1867" y="260" type="line"/>
      <point x="1867" y="105" type="line"/>
      <point x="1575" y="105" type="line"/>
      <point x="1769" y="288" type="line" smooth="yes"/>
      <point x="1864" y="378"/>
      <point x="1968" y="476"/>
      <point x="1968" y="589" type="curve" smooth="yes"/>
      <point x="1968" y="746"/>
      <point x="1853" y="834"/>
      <point x="1681" y="834" type="curve" smooth="yes"/>
      <point x="1484" y="834"/>
      <point x="1376" y="722"/>
      <point x="1376" y="579" type="curve" smooth="yes"/>
      <point x="1376" y="545"/>
      <point x="1382" y="509"/>
      <point x="1395" y="474" type="curve"/>
      <point x="1531" y="474" type="line"/>
      <point x="1524" y="504"/>
      <point x="1520" y="533"/>
      <point x="1520" y="558" type="curve" smooth="yes"/>
      <point x="1520" y="660"/>
      <point x="1577" y="719"/>
      <point x="1682" y="719" type="curve" smooth="yes"/>
      <point x="1779" y="719"/>
      <point x="1813" y="659"/>
      <point x="1815" y="588" type="curve" smooth="yes"/>
      <point x="1819" y="523"/>
      <point x="1739" y="446"/>
      <point x="1667" y="376" type="curve" smooth="yes"/>
      <point x="1392" y="112" type="line"/>
    </contour>
    <contour>
      <point x="222" y="334" type="line"/>
      <point x="628" y="334" type="line"/>
      <point x="628" y="442" type="line"/>
      <point x="508" y="442" type="line"/>
      <point x="508" y="1152" type="line"/>
      <point x="214" y="1115" type="line"/>
      <point x="214" y="1008" type="line"/>
      <point x="349" y="1025" type="line"/>
      <point x="349" y="442" type="line"/>
      <point x="222" y="442" type="line"/>
    </contour>
    <contour>
      <point x="587" y="-56" type="line"/>
      <point x="723" y="-56" type="line"/>
      <point x="1540" y="1246" type="line"/>
      <point x="1407" y="1246" type="line"/>
    </contour>
  </outline>
</glyph>
<glyph name="multiply" format="1">
  <advance width="1009"/>
  <unicode hex="00D7"/>
  <outline>
    <contour>
      <point x="226" y="128" type="line"/>
      <point x="502" y="399" type="line"/>
      <point x="775" y="133" type="line"/>
      <point x="878" y="235" type="line"/>
      <point x="606" y="501" type="line"/>
      <point x="883" y="773" type="line"/>
      <point x="784" y="874" type="line"/>
      <point x="505" y="602" type="line"/>
      <point x="234" y="869" type="line"/>
      <point x="131" y="766" type="line"/>
      <point x="403" y="498" type="line"/>
      <point x="126" y="228" type="line"/>
    </contour>
  </outline>
</glyph>
<glyph name="Oslash" format="1">
  <advance width="1471"/>
  <unicode hex="00D8"/>
  <outline>
    <contour>
      <point x="314" y="-82" type="line"/>
      <point x="1285" y="1153" type="line"/>
      <point x="1179" y="1228" type="line"/>
      <point x="209" y="-7" type="line"/>
    </contour>
    <component base="O"/>
  </outline>
</glyph>
<glyph name="germandbls" format="1">
  <advance width="1167"/>
  <unicode hex="00DF"/>
  <outline>
    <contour>
      <point x="44" y="0" type="line"/>
      <point x="535" y="0" type="line"/>
      <point x="535" y="152" type="line"/>
      <point x="422" y="152" type="line"/>
      <point x="422" y="845" type="line" smooth="yes"/>
      <point x="422" y="995"/>
      <point x="504" y="1090"/>
      <point x="626" y="1090" type="curve" smooth="yes"/>
      <point x="724" y="1090"/>
      <point x="789" y="1032"/>
      <point x="789" y="936" type="curve" smooth="yes"/>
      <point x="789" y="818"/>
      <point x="709" y="742"/>
      <point x="577" y="742" type="curve"/>
      <point x="577" y="595" type="line"/>
      <point x="762" y="594"/>
      <point x="874" y="510"/>
      <point x="876" y="378" type="curve" smooth="yes"/>
      <point x="878" y="245"/>
      <point x="783" y="152"/>
      <point x="626" y="152" type="curve"/>
      <point x="626" y="0" type="line"/>
      <point x="940" y="0"/>
      <point x="1117" y="151"/>
      <point x="1115" y="382" type="curve" smooth="yes"/>
      <point x="1113" y="537"/>
      <point x="995" y="655"/>
      <point x="817" y="693" type="curve"/>
      <point x="933" y="735"/>
      <point x="1003" y="837"/>
      <point x="1003" y="950" type="curve" smooth="yes"/>
      <point x="1003" y="1138"/>
      <point x="860" y="1258"/>
      <point x="624" y="1258" type="curve" smooth="yes"/>
      <point x="352" y="1258"/>
      <point x="191" y="1095"/>
      <point x="191" y="838" type="curve" smooth="yes"/>
      <point x="191" y="152" type="line"/>
      <point x="44" y="152" type="line"/>
    </contour>
  </outline>
</glyph>
<glyph name="divide" format="1">
  <advance width="895"/>
  <unicode hex="00F7"/>
  <outline>
    <contour>
      <point x="356" y="141" type="line"/>
      <point x="540" y="141" type="line"/>
      <point x="540" y="323" type="line"/>
      <point x="356" y="323" type="line"/>
    </contour>
    <contour>
      <point x="35" y="484" type="line"/>
      <point x="860" y="484" type="line"/>
      <point x="860" y="613" type="line"/>
      <point x="35" y="613" type="line"/>
    </contour>
    <contour>
      <point x="356" y="771" type="line"/>
      <point x="540" y="771" type="line"/>
      <point x="540" y="952" type="line"/>
      <point x="356" y="952" type="line"/>
    </contour>
  </outline>
</glyph>
<glyph name="thorn" format="1">
  <advance width="1145"/>
  <unicode hex="00FE"/>
  <outline>
    <contour>
      <point x="34" y="-342" type="line"/>
      <point x="396" y="-342" type="line"/>
      <point x="396" y="1152" type="line"/>
      <point x="28" y="1152" type="line"/>
      <point x="28" y="1001" type="line"/>
      <point x="177" y="1001" type="line"/>
      <point x="177" y="-189" type="line"/>
      <point x="34" y="-189" type="line"/>
    </contour>
    <component base="lc_bowl_right" xOffset="12" yOffset="21"/>
  </outline>
</glyph>
<glyph name="Eng" format="1">
  <advance width="1484"/>
  <unicode hex="014A"/>
  <outline>
    <contour>
      <point x="800" y="-384" type="line"/>
      <point x="1045" y="-384"/>
      <point x="1264" y="-316"/>
      <point x="1264" y="-26" type="curve" smooth="yes"/>
      <point x="1264" y="204" type="line"/>
      <point x="1087" y="204" type="line"/>
      <point x="1088" y="-32" type="line" smooth="yes"/>
      <point x="1089" y="-191"/>
      <point x="971" y="-236"/>
      <point x="800" y="-236" type="curve"/>
    </contour>
    <component base="N"/>
  </outline>
</glyph>
<glyph name="caron" format="1">
  <advance width="636"/>
  <unicode hex="02C7"/>
  <outline>
    <contour>
      <point x="316" y="804" type="move" name="_top"/>
    </contour>
    <contour>
      <point x="208" y="915" type="line"/>
      <point x="430" y="915" type="line"/>
      <point x="586" y="1233" type="line"/>
      <point x="438" y="1233" type="line"/>
      <point x="320" y="1025" type="line"/>
      <point x="196" y="1233" type="line"/>
      <point x="46" y="1233" type="line"/>
    </contour>
  </outline>
</glyph>
<glyph name="ogonek" format="1">
  <advance width="442"/>
  <unicode hex="02DB"/>
  <outline>
    <contour>
      <point x="222" y="0" type="move" name="_ogonek"/>
    </contour>
    <contour>
      <point x="285" y="-362" type="curve" smooth="yes"/>
      <point x="332" y="-362"/>
      <point x="367" y="-352"/>
      <point x="424" y="-325" type="curve"/>
      <point x="424" y="-215" type="line"/>
      <point x="393" y="-229"/>
      <point x="369" y="-234"/>
      <point x="340" y="-234" type="curve" smooth="yes"/>
      <point x="272" y="-234"/>
      <point x="237" y="-196"/>
      <point x="237" y="-126" type="curve" smooth="yes"/>
      <point x="237" y="-85"/>
      <point x="248" y="-40"/>
      <point x="284" y="9" type="curve"/>
      <point x="170" y="9" type="line"/>
      <point x="118" y="-68"/>
      <point x="103" y="-129"/>
      <point x="103" y="-185" type="curve" smooth="yes"/>
      <point x="103" y="-289"/>
      <point x="178" y="-362"/>
    </contour>
  </outline>
</glyph>
<glyph name="uni0307" format="1">
  <advance width="535"/>
  <unicode hex="0307"/>
  <outline>
    <contour>
      <point x="270" y="805" type="move" name="_top"/>
    </contour>
    <contour>
      <point x="268" y="917" type="curve" smooth="yes"/>
      <point x="346" y="917"/>
      <point x="395" y="972"/>
      <point x="394" y="1038" type="curve"/>
      <point x="394" y="1113"/>
      <point x="338" y="1158"/>
      <point x="268" y="1158" type="curve" smooth="yes"/>
      <point x="198" y="1158"/>
      <point x="141" y="1108"/>
      <point x="142" y="1038" type="curve" smooth="yes"/>
      <point x="142" y="970"/>
      <point x="199" y="917"/>
    </contour>
  </outline>
</glyph>
<glyph name="commaturnedabovecomb" format="1">
  <advance width="600"/>
  <unicode hex="0312"/>
  <outline>
    <contour>
      <point x="171" y="804" type="move" name="_top"/>
    </contour>
    <contour>
      <point x="92" y="907" type="curve"/>
      <point x="352" y="907" type="line"/>
      <point x="352" y="1145" type="line"/>
      <point x="206" y="1145" type="line"/>
      <point x="206" y="1229"/>
      <point x="260" y="1263"/>
      <point x="351" y="1279" type="curve"/>
      <point x="351" y="1370" type="line"/>
      <point x="174" y="1369"/>
      <point x="88" y="1297"/>
      <point x="89" y="1137" type="curve"/>
      <point x="89" y="1122"/>
      <point x="90" y="918"/>
    </contour>
  </outline>
</glyph>
<glyph name="Delta" format="1">
  <advance width="1175"/>
  <unicode hex="0394"/>
  <outline>
    <contour>
      <point x="80" y="0" type="line"/>
      <point x="1095" y="0" type="line"/>
      <point x="1095" y="102" type="line"/>
      <point x="686" y="1152" type="line"/>
      <point x="489" y="1152" type="line"/>
      <point x="80" y="102" type="line"/>
    </contour>
    <contour>
      <point x="277" y="156" type="line"/>
      <point x="561" y="932" type="line"/>
      <point x="832" y="156" type="line"/>
    </contour>
  </outline>
</glyph>
<glyph name="pi" format="1">
  <advance width="1210"/>
  <unicode hex="03C0"/>
  <outline>
    <contour>
      <point x="911" y="-19" type="curve" smooth="yes"/>
      <point x="974" y="-19"/>
      <point x="1038" y="1"/>
      <point x="1084" y="33" type="curve"/>
      <point x="1084" y="138" type="line"/>
      <point x="1044" y="126"/>
      <point x="1007" y="118"/>
      <point x="976" y="118" type="curve" smooth="yes"/>
      <point x="914" y="118"/>
      <point x="870" y="146"/>
      <point x="870" y="231" type="curve" smooth="yes"/>
      <point x="870" y="313"/>
      <point x="875" y="447"/>
      <point x="888" y="597" type="curve"/>
      <point x="1092" y="597" type="line"/>
      <point x="1092" y="804" type="line"/>
      <point x="390" y="804" type="line" smooth="yes"/>
      <point x="202" y="804"/>
      <point x="125" y="662"/>
      <point x="126" y="497" type="curve"/>
      <point x="227" y="497" type="line"/>
      <point x="236" y="557"/>
      <point x="269" y="597"/>
      <point x="325" y="597" type="curve" smooth="yes"/>
      <point x="397" y="597" type="line"/>
      <point x="345" y="299" type="line" smooth="yes"/>
      <point x="316" y="135"/>
      <point x="227" y="91"/>
      <point x="155" y="87" type="curve"/>
      <point x="155" y="-1" type="line"/>
      <point x="268" y="-1" type="line" smooth="yes"/>
      <point x="431" y="-1"/>
      <point x="514" y="79"/>
      <point x="525" y="245" type="curve" smooth="yes"/>
      <point x="548" y="597" type="line"/>
      <point x="763" y="597" type="line"/>
      <point x="719" y="446"/>
      <point x="679" y="307"/>
      <point x="679" y="196" type="curve" smooth="yes"/>
      <point x="679" y="69"/>
      <point x="735" y="-19"/>
    </contour>
  </outline>
</glyph>
<glyph name="emdash" format="1">
  <advance width="2010"/>
  <unicode hex="2014"/>
  <outline>
    <contour>
      <point x="147" y="227" type="line"/>
      <point x="1863" y="227" type="line"/>
      <point x="1863" y="354" type="line"/>
      <point x="147" y="354" type="line"/>
    </contour>
  </outline>
</glyph>
<glyph name="quoteleft" format="1">
  <advance width="539"/>
  <unicode hex="2018"/>
  <outline>
    <contour>
      <point x="141" y="759" type="line"/>
      <point x="362" y="759" type="line"/>
      <point x="362" y="986" type="line"/>
      <point x="259" y="986" type="line"/>
      <point x="260" y="1079"/>
      <point x="286" y="1110"/>
      <point x="359" y="1122" type="curve"/>
      <point x="359" y="1224" type="line"/>
      <point x="193" y="1223"/>
      <point x="141" y="1124"/>
      <point x="141" y="982" type="curve" smooth="yes"/>
    </contour>
  </outline>
</glyph>
<glyph name="quotedblright" format="1">
  <advance width="895"/>
  <unicode hex="201D"/>
  <outline>
    <contour>
      <point x="181" y="739" type="line"/>
      <point x="347" y="741"/>
      <point x="398" y="840"/>
      <point x="398" y="983" type="curve" smooth="yes"/>
      <point x="398" y="1205" type="line"/>
      <point x="177" y="1205" type="line"/>
      <point x="177" y="978" type="line"/>
      <point x="281" y="978" type="line"/>
      <point x="279" y="885"/>
      <point x="255" y="853"/>
      <point x="181" y="841" type="curve"/>
    </contour>
    <contour>
      <point x="498" y="739" type="line"/>
      <point x="664" y="741"/>
      <point x="715" y="840"/>
      <point x="715" y="983" type="curve" smooth="yes"/>
      <point x="715" y="1205" type="line"/>
      <point x="495" y="1205" type="line"/>
      <point x="495" y="978" type="line"/>
      <point x="599" y="978" type="line"/>
      <point x="596" y="885"/>
      <point x="572" y="853"/>
      <point x="498" y="841" type="curve"/>
    </contour>
  </outline>
</glyph>
<glyph name="guilsinglleft" format="1">
  <advance width="669"/>
  <unicode hex="2039"/>
  <outline>
    <contour>
      <point x="366" y="136" type="line"/>
      <point x="527" y="136" type="line"/>
      <point x="315" y="554" type="line"/>
      <point x="527" y="973" type="line"/>
      <point x="366" y="973" type="line"/>
      <point x="49" y="553" type="line"/>
    </contour>
  </outline>
</glyph>
<glyph name="guilsinglright" format="1">
  <advance width="669"/>
  <unicode hex="203A"/>
  <outline>
    <contour>
      <point x="147" y="136" type="line"/>
      <point x="308" y="136" type="line"/>
      <point x="625" y="556" type="line"/>
      <point x="308" y="973" type="line"/>
      <point x="147" y="973" type="line"/>
      <point x="359" y="555" type="line"/>
    </contour>
  </outline>
</glyph>
<glyph name="fraction" format="1">
  <advance width="745"/>
  <unicode hex="2044"/>
  <outline>
    <contour>
      <point x="-108" y="-58" type="line"/>
      <point x="27" y="-58" type="line"/>
      <point x="845" y="1244" type="line"/>
      <point x="712" y="1244" type="line"/>
    </contour>
  </outline>
</glyph>
<glyph name="uni2113" format="1">
  <advance width="728"/>
  <unicode hex="2113"/>
  <outline>
    <contour>
      <point x="614" y="-8" type="curve"/>
      <point x="637" y="148" type="line"/>
      <point x="446" y="148"/>
      <point x="428" y="189"/>
      <point x="453" y="363" type="curve"/>
      <point x="585" y="1208" type="line"/>
      <point x="205" y="1208" type="line"/>
      <point x="179" y="1047" type="line"/>
      <point x="334" y="1047" type="line"/>
      <point x="214" y="274" type="line" smooth="yes"/>
      <point x="179" y="47"/>
      <point x="356" y="-10"/>
    </contour>
  </outline>
</glyph>
<glyph name="trademark" format="1">
  <advance width="1832"/>
  <unicode hex="2122"/>
  <outline>
    <contour>
      <point x="804" y="481" type="line"/>
      <point x="1076" y="481" type="line"/>
      <point x="1076" y="580" type="line"/>
      <point x="994" y="580" type="line"/>
      <point x="994" y="1007" type="line"/>
      <point x="1207" y="489" type="line"/>
      <point x="1264" y="489" type="line"/>
      <point x="1471" y="1007" type="line"/>
      <point x="1471" y="580" type="line"/>
      <point x="1390" y="580" type="line"/>
      <point x="1390" y="481" type="line"/>
      <point x="1686" y="481" type="line"/>
      <point x="1686" y="580" type="line"/>
      <point x="1601" y="580" type="line"/>
      <point x="1601" y="1053" type="line"/>
      <point x="1686" y="1053" type="line"/>
      <point x="1686" y="1152" type="line"/>
      <point x="1412" y="1152" type="line"/>
      <point x="1237" y="708" type="line"/>
      <point x="1066" y="1152" type="line"/>
      <point x="804" y="1152" type="line"/>
      <point x="804" y="1053" type="line"/>
      <point x="889" y="1053" type="line"/>
      <point x="889" y="580" type="line"/>
      <point x="804" y="580" type="line"/>
    </contour>
    <contour>
      <point x="276" y="481" type="line"/>
      <point x="610" y="481" type="line"/>
      <point x="610" y="580" type="line"/>
      <point x="513" y="580" type="line"/>
      <point x="513" y="1053" type="line"/>
      <point x="629" y="1053" type="line"/>
      <point x="629" y="887" type="line"/>
      <point x="734" y="887" type="line"/>
      <point x="734" y="1152" type="line"/>
      <point x="151" y="1152" type="line"/>
      <point x="151" y="887" type="line"/>
      <point x="257" y="887" type="line"/>
      <point x="257" y="1053" type="line"/>
      <point x="375" y="1053" type="line"/>
      <point x="375" y="580" type="line"/>
      <point x="276" y="580" type="line"/>
    </contour>
  </outline>
</glyph>
<glyph name="partialdiff" format="1">
  <advance width="1003"/>
  <unicode hex="2202"/>
  <outline>
    <contour>
      <point x="401" y="-19" type="curve" smooth="yes"/>
      <point x="767" y="-19"/>
      <point x="898" y="425"/>
      <point x="898" y="723" type="curve" smooth="yes"/>
      <point x="898" y="1041"/>
      <point x="764" y="1235"/>
      <point x="496" y="1235" type="curve" smooth="yes"/>
      <point x="325" y="1235"/>
      <point x="227" y="1159"/>
      <point x="227" y="1053" type="curve" smooth="yes"/>
      <point x="227" y="988"/>
      <point x="282" y="930"/>
      <point x="429" y="933" type="curve"/>
      <point x="427" y="1020"/>
      <point x="483" y="1119"/>
      <point x="588" y="1119" type="curve" smooth="yes"/>
      <point x="731" y="1119"/>
      <point x="793" y="790"/>
      <point x="771" y="616" type="curve"/>
      <point x="803" y="621" type="line"/>
      <point x="772" y="702"/>
      <point x="697" y="768"/>
      <point x="561" y="768" type="curve" smooth="yes"/>
      <point x="228" y="768"/>
      <point x="101" y="459"/>
      <point x="101" y="279" type="curve" smooth="yes"/>
      <point x="101" y="126"/>
      <point x="176" y="-19"/>
    </contour>
    <contour>
      <point x="491" y="102" type="curve" smooth="yes"/>
      <point x="417" y="102"/>
      <point x="375" y="165"/>
      <point x="375" y="267" type="curve" smooth="yes"/>
      <point x="375" y="411"/>
      <point x="451" y="658"/>
      <point x="616" y="658" type="curve" smooth="yes"/>
      <point x="679" y="658"/>
      <point x="736" y="623"/>
      <point x="760" y="534" type="curve"/>
      <point x="727" y="305"/>
      <point x="611" y="102"/>
    </contour>
  </outline>
</glyph>
<glyph name="uni2206" format="1">
  <advance width="1216"/>
  <unicode hex="2206"/>
  <outline>
    <contour>
      <point x="87" y="0" type="line"/>
      <point x="1126" y="0" type="line"/>
      <point x="1126" y="130" type="line"/>
      <point x="740" y="1167" type="line"/>
      <point x="493" y="1167" type="line"/>
      <point x="87" y="120" type="line"/>
    </contour>
    <contour>
      <point x="257" y="149" type="line"/>
      <point x="257" y="149"/>
      <point x="543" y="931"/>
      <point x="557" y="997" type="curve"/>
      <point x="573" y="930"/>
      <point x="845" y="149"/>
      <point x="845" y="149" type="curve" smooth="yes"/>
    </contour>
  </outline>
</glyph>
<glyph name="product" format="1">
  <advance width="1493"/>
  <unicode hex="220F"/>
  <outline>
    <contour>
      <point x="108" y="0" type="line"/>
      <point x="659" y="0" type="line"/>
      <point x="659" y="152" type="line"/>
      <point x="505" y="152" type="line"/>
      <point x="505" y="1001" type="line"/>
      <point x="988" y="1001" type="line"/>
      <point x="988" y="152" type="line"/>
      <point x="834" y="152" type="line"/>
      <point x="834" y="0" type="line"/>
      <point x="1385" y="0" type="line"/>
      <point x="1385" y="152" type="line"/>
      <point x="1233" y="152" type="line"/>
      <point x="1233" y="1001" type="line"/>
      <point x="1385" y="1001" type="line"/>
      <point x="1385" y="1152" type="line"/>
      <point x="108" y="1152" type="line"/>
      <point x="108" y="1001" type="line"/>
      <point x="260" y="1001" type="line"/>
      <point x="260" y="152" type="line"/>
      <point x="108" y="152" type="line"/>
    </contour>
  </outline>
</glyph>
<glyph name="minus" format="1">
  <advance width="928"/>
  <unicode hex="2212"/>
  <outline>
    <contour>
      <point x="88" y="422" type="line"/>
      <point x="841" y="422" type="line"/>
      <point x="841" y="574" type="line"/>
      <point x="88" y="574" type="line"/>
    </contour>
  </outline>
</glyph>
<glyph name="radical" format="1">
  <advance width="1208"/>
  <unicode hex="221A"/>
  <outline>
    <contour>
      <point x="449" y="-12" type="line"/>
      <point x="624" y="-12" type="line"/>
      <point x="1105" y="1349" type="line"/>
      <point x="973" y="1349" type="line"/>
      <point x="561" y="196" type="line"/>
      <point x="364" y="661" type="line"/>
      <point x="31" y="661" type="line"/>
      <point x="31" y="538" type="line"/>
      <point x="197" y="538" type="line"/>
    </contour>
  </outline>
</glyph>
<glyph name="infinity" format="1">
  <advance width="1615"/>
  <unicode hex="221E"/>
  <outline>
    <contour>
      <point x="1148" y="176" type="curve" smooth="yes"/>
      <point x="1347" y="176"/>
      <point x="1471" y="359"/>
      <point x="1471" y="566" type="curve" smooth="yes"/>
      <point x="1471" y="799"/>
      <point x="1346" y="957"/>
      <point x="1150" y="957" type="curve" smooth="yes"/>
      <point x="1012" y="957"/>
      <point x="909" y="880"/>
      <point x="823" y="722" type="curve"/>
      <point x="731" y="895"/>
      <point x="600" y="963"/>
      <point x="470" y="963" type="curve" smooth="yes"/>
      <point x="273" y="963"/>
      <point x="143" y="793"/>
      <point x="143" y="572" type="curve" smooth="yes"/>
      <point x="143" y="329"/>
      <point x="284" y="181"/>
      <point x="470" y="181" type="curve" smooth="yes"/>
      <point x="593" y="181"/>
      <point x="707" y="265"/>
      <point x="791" y="422" type="curve"/>
      <point x="893" y="249"/>
      <point x="1018" y="176"/>
    </contour>
    <contour>
      <point x="476" y="328" type="curve" smooth="yes"/>
      <point x="346" y="328"/>
      <point x="287" y="441"/>
      <point x="287" y="570" type="curve" smooth="yes"/>
      <point x="287" y="710"/>
      <point x="363" y="817"/>
      <point x="472" y="817" type="curve" smooth="yes"/>
      <point x="575" y="817"/>
      <point x="648" y="736"/>
      <point x="718" y="572" type="curve"/>
      <point x="645" y="406"/>
      <point x="566" y="328"/>
    </contour>
    <contour>
      <point x="1140" y="322" type="curve" smooth="yes"/>
      <point x="1038" y="322"/>
      <point x="964" y="406"/>
      <point x="896" y="566" type="curve"/>
      <point x="974" y="733"/>
      <point x="1044" y="811"/>
      <point x="1138" y="811" type="curve" smooth="yes"/>
      <point x="1252" y="811"/>
      <point x="1330" y="704"/>
      <point x="1330" y="568" type="curve" smooth="yes"/>
      <point x="1330" y="435"/>
      <point x="1257" y="322"/>
    </contour>
  </outline>
</glyph>
<glyph name="caron.alt" format="1">
  <advance width="600"/>
  <outline>
    <contour>
      <point x="123" y="804" type="move" name="_caron.alt"/>
    </contour>
    <contour>
      <point x="90" y="723" type="line"/>
      <point x="263" y="723"/>
      <point x="353" y="800"/>
      <point x="352" y="943" type="curve"/>
      <point x="352" y="1174" type="line"/>
      <point x="90" y="1174" type="line"/>
      <point x="90" y="953" type="line"/>
      <point x="225" y="953" type="line"/>
      <point x="225" y="872"/>
      <point x="180" y="838"/>
      <point x="90" y="823" type="curve"/>
    </contour>
  </outline>
</glyph>
<glyph name="ffi" format="1">
  <advance width="1825"/>
  <outline>
    <contour>
      <point x="64" y="0" type="line"/>
      <point x="547" y="0" type="line"/>
      <point x="547" y="151" type="line"/>
      <point x="419" y="151" type="line"/>
      <point x="419" y="653" type="line"/>
      <point x="748" y="653" type="line"/>
      <point x="748" y="804" type="line"/>
      <point x="419" y="804" type="line"/>
      <point x="419" y="933" type="line" smooth="yes"/>
      <point x="419" y="1048"/>
      <point x="512" y="1095"/>
      <point x="623" y="1095" type="curve" smooth="yes"/>
      <point x="719" y="1095"/>
      <point x="829" y="1060"/>
      <point x="902" y="1001" type="curve"/>
      <point x="958" y="1116" type="line"/>
      <point x="867" y="1202"/>
      <point x="726" y="1247"/>
      <point x="590" y="1247" type="curve" smooth="yes"/>
      <point x="389" y="1247"/>
      <point x="200" y="1150"/>
      <point x="200" y="942" type="curve" smooth="yes"/>
      <point x="200" y="804" type="line"/>
      <point x="61" y="804" type="line"/>
      <point x="61" y="653" type="line"/>
      <point x="200" y="653" type="line"/>
      <point x="200" y="151" type="line"/>
      <point x="64" y="151" type="line"/>
    </contour>
    <component base="fi" xOffset="560"/>
  </outline>
</glyph>
<glyph name="uniFB00" format="1">
  <advance width="1409"/>
  <outline>
    <contour>
      <point x="79" y="0" type="line"/>
      <point x="631" y="0" type="line"/>
      <point x="631" y="152" type="line"/>
      <point x="456" y="152" type="line"/>
      <point x="456" y="653" type="line"/>
      <point x="910" y="653" type="line"/>
      <point x="910" y="152" type="line"/>
      <point x="766" y="152" type="line"/>
      <point x="766" y="0" type="line"/>
      <point x="1320" y="0" type="line"/>
      <point x="1320" y="152" type="line"/>
      <point x="1129" y="152" type="line"/>
      <point x="1129" y="653" type="line"/>
      <point x="1317" y="653" type="line"/>
      <point x="1317" y="804" type="line"/>
      <point x="1129" y="804" type="line"/>
      <point x="1129" y="940" type="line" smooth="yes"/>
      <point x="1129" y="1051"/>
      <point x="1157" y="1089"/>
      <point x="1213" y="1089" type="curve" smooth="yes"/>
      <point x="1274" y="1089"/>
      <point x="1288" y="1042"/>
      <point x="1299" y="972" type="curve"/>
      <point x="1465" y="1017" type="line"/>
      <point x="1453" y="1182"/>
      <point x="1338" y="1235"/>
      <point x="1203" y="1235" type="curve" smooth="yes"/>
      <point x="986" y="1235"/>
      <point x="910" y="1111"/>
      <point x="910" y="931" type="curve" smooth="yes"/>
      <point x="910" y="804" type="line"/>
      <point x="456" y="804" type="line"/>
      <point x="456" y="940" type="line" smooth="yes"/>
      <point x="456" y="1051"/>
      <point x="490" y="1089"/>
      <point x="545" y="1089" type="curve" smooth="yes"/>
      <point x="611" y="1089"/>
      <point x="625" y="1042"/>
      <point x="636" y="972" type="curve"/>
      <point x="802" y="1017" type="line"/>
      <point x="790" y="1182"/>
      <point x="675" y="1235"/>
      <point x="530" y="1235" type="curve" smooth="yes"/>
      <point x="313" y="1235"/>
      <point x="237" y="1102"/>
      <point x="237" y="931" type="curve" smooth="yes"/>
      <point x="237" y="804" type="line"/>
      <point x="75" y="804" type="line"/>
      <point x="75" y="653" type="line"/>
      <point x="237" y="653" type="line"/>
      <point x="237" y="152" type="line"/>
      <point x="79" y="152" type="line"/>
    </contour>
  </outline>
</glyph>
<glyph name="uniFB03" format="1">
  <advance width="1906"/>
  <outline>
    <contour>
      <point x="79" y="0" type="line"/>
      <point x="624" y="0" type="line"/>
      <point x="624" y="152" type="line"/>
      <point x="456" y="152" type="line"/>
      <point x="456" y="653" type="line"/>
      <point x="830" y="653" type="line"/>
      <point x="830" y="804" type="line"/>
      <point x="456" y="804" type="line"/>
      <point x="456" y="961" type="line" smooth="yes"/>
      <point x="456" y="1055"/>
      <point x="541" y="1105"/>
      <point x="649" y="1105" type="curve" smooth="yes"/>
      <point x="735" y="1105"/>
      <point x="835" y="1074"/>
      <point x="920" y="1011" type="curve"/>
      <point x="1042" y="1052" type="line"/>
      <point x="948" y="1185"/>
      <point x="778" y="1249"/>
      <point x="618" y="1249" type="curve" smooth="yes"/>
      <point x="419" y="1249"/>
      <point x="237" y="1150"/>
      <point x="237" y="961" type="curve" smooth="yes"/>
      <point x="237" y="804" type="line"/>
      <point x="75" y="804" type="line"/>
      <point x="75" y="653" type="line"/>
      <point x="237" y="653" type="line"/>
      <point x="237" y="152" type="line"/>
      <point x="79" y="152" type="line"/>
    </contour>
    <component base="fi" xOffset="644"/>
  </outline>
</glyph>
